# xmcd
#
# Track frame offsets: 
#        150
#        17025
#        49501
#        88223
#        125735
#        169444
#        191343
#        215519
#        234050
#        269925
#        289756
#        306580
#
# Disc length: 4421 seconds
#
# Revision: 0
# Processed by: cddbd v1.5.2PL0 Copyright (c) Steve Scherf et al.
# Submitted via: ExactAudioCopyFreeDBPlugin 1.0
#
DISCID=b611430c
DTITLE=Jim McCarty - Jim McCarty and Friends
DYEAR=2011
DGENRE=Blues
TTITLE0=J&A Jump (Feat. Johnny A)
TTITLE1=South Boulevard Blues (Feat. Johnny A)
TTITLE2=Help Me (Feat. Jason Ricci)
TTITLE3=Hi-Heel Sneakers (Feat. Duke Robillard)
TTITLE4=West Helena Blues (Feat. Duke Robillard)
TTITLE5=Tell Me What's The Reason (Feat. The Millionaires)
TTITLE6=No Fun (Feat. The Millionaires)
TTITLE7=Strollin' With The Bone (Feat. The Millionaires)
TTITLE8=Sweet Sixteen (Feat. John Nemeth)
TTITLE9=There's A Train Coming Down The Track's (Feat. Johnny "Bee" Ba
TTITLE9=danjek)
TTITLE10=School Days (Feat. Jimmy Thackery)
TTITLE11=Cristo Redentor (Feat. Mystery Train)
EXTD=
EXTT0=
EXTT1=
EXTT2=
EXTT3=
EXTT4=
EXTT5=
EXTT6=
EXTT7=
EXTT8=
EXTT9=
EXTT10=
EXTT11=
PLAYORDER=
